<mxfile host="app.diagrams.net" modified="2022-03-06T14:22:27.380Z" agent="5.0 (Macintosh; Intel Mac OS X 10_15_7) AppleWebKit/537.36 (KHTML, like Gecko) Chrome/99.0.4844.51 Safari/537.36" etag="EAje3LkArZwFCuU1BQiV" version="16.2.4" type="github">
  <diagram id="-4xD1Iyq92KiHUGiBPbh" name="第 1 页">
    <mxGraphModel dx="946" dy="589" grid="1" gridSize="10" guides="1" tooltips="1" connect="1" arrows="1" fold="1" page="1" pageScale="1" pageWidth="827" pageHeight="1169" math="0" shadow="0">
      <root>
        <mxCell id="0" />
        <mxCell id="1" parent="0" />
        <mxCell id="8QwcRgRgL07BDc09xjMd-3" style="edgeStyle=orthogonalEdgeStyle;curved=1;rounded=0;sketch=1;orthogonalLoop=1;jettySize=auto;html=1;exitX=1;exitY=0.25;exitDx=0;exitDy=0;entryX=0;entryY=0.25;entryDx=0;entryDy=0;fontSize=18;" edge="1" parent="1" source="8QwcRgRgL07BDc09xjMd-1" target="8QwcRgRgL07BDc09xjMd-2">
          <mxGeometry relative="1" as="geometry" />
        </mxCell>
        <mxCell id="8QwcRgRgL07BDc09xjMd-1" value="客户端" style="rounded=1;whiteSpace=wrap;html=1;fontStyle=1;sketch=1;fontSize=18;" vertex="1" parent="1">
          <mxGeometry x="110" y="50" width="120" height="60" as="geometry" />
        </mxCell>
        <mxCell id="8QwcRgRgL07BDc09xjMd-4" style="edgeStyle=orthogonalEdgeStyle;curved=1;rounded=0;sketch=1;orthogonalLoop=1;jettySize=auto;html=1;exitX=0;exitY=0.75;exitDx=0;exitDy=0;entryX=1;entryY=0.75;entryDx=0;entryDy=0;fontSize=18;" edge="1" parent="1" source="8QwcRgRgL07BDc09xjMd-2" target="8QwcRgRgL07BDc09xjMd-1">
          <mxGeometry relative="1" as="geometry" />
        </mxCell>
        <mxCell id="8QwcRgRgL07BDc09xjMd-2" value="服务端" style="rounded=1;whiteSpace=wrap;html=1;fontStyle=1;sketch=1;fontSize=18;" vertex="1" parent="1">
          <mxGeometry x="364" y="50" width="120" height="60" as="geometry" />
        </mxCell>
        <mxCell id="8QwcRgRgL07BDc09xjMd-6" value="" style="endArrow=none;html=1;rounded=0;sketch=1;fontSize=18;fontColor=#EA6B66;curved=1;strokeColor=#FF0000;" edge="1" parent="1">
          <mxGeometry width="50" height="50" relative="1" as="geometry">
            <mxPoint x="270" y="110" as="sourcePoint" />
            <mxPoint x="320" y="50" as="targetPoint" />
          </mxGeometry>
        </mxCell>
        <mxCell id="8QwcRgRgL07BDc09xjMd-7" value="" style="endArrow=none;html=1;rounded=0;sketch=1;fontSize=18;fontColor=#EA6B66;curved=1;strokeColor=#FF0000;" edge="1" parent="1">
          <mxGeometry width="50" height="50" relative="1" as="geometry">
            <mxPoint x="270" y="50" as="sourcePoint" />
            <mxPoint x="320" y="110" as="targetPoint" />
          </mxGeometry>
        </mxCell>
        <mxCell id="8QwcRgRgL07BDc09xjMd-8" value="" style="points=[];aspect=fixed;html=1;align=center;shadow=0;dashed=0;image;image=img/lib/allied_telesis/computer_and_terminals/Personal_Computer.svg;sketch=1;fontSize=18;fontColor=#EA6B66;" vertex="1" parent="1">
          <mxGeometry x="110" y="250" width="70" height="94.87" as="geometry" />
        </mxCell>
        <mxCell id="8QwcRgRgL07BDc09xjMd-9" value="客户端" style="text;html=1;align=center;verticalAlign=middle;resizable=0;points=[];autosize=1;strokeColor=none;fillColor=none;fontSize=18;fontColor=#000000;" vertex="1" parent="1">
          <mxGeometry x="110" y="360" width="70" height="30" as="geometry" />
        </mxCell>
        <mxCell id="8QwcRgRgL07BDc09xjMd-10" value="" style="image;html=1;image=img/lib/clip_art/networking/Print_Server_128x128.png;sketch=1;fontSize=18;fontColor=#EA6B66;" vertex="1" parent="1">
          <mxGeometry x="345" y="264.87" width="80" height="80" as="geometry" />
        </mxCell>
        <mxCell id="8QwcRgRgL07BDc09xjMd-11" value="服务端" style="text;html=1;align=center;verticalAlign=middle;resizable=0;points=[];autosize=1;strokeColor=none;fillColor=none;fontSize=18;fontColor=#000000;" vertex="1" parent="1">
          <mxGeometry x="355" y="355" width="70" height="30" as="geometry" />
        </mxCell>
        <mxCell id="8QwcRgRgL07BDc09xjMd-12" value="" style="endArrow=none;dashed=1;html=1;rounded=0;sketch=0;fontSize=18;fontColor=#EA6B66;strokeColor=#000000;curved=1;strokeWidth=3;" edge="1" parent="1">
          <mxGeometry width="50" height="50" relative="1" as="geometry">
            <mxPoint x="150" y="630" as="sourcePoint" />
            <mxPoint x="150" y="400" as="targetPoint" />
          </mxGeometry>
        </mxCell>
        <mxCell id="8QwcRgRgL07BDc09xjMd-14" value="" style="endArrow=none;dashed=1;html=1;rounded=0;sketch=0;fontSize=18;fontColor=#EA6B66;strokeColor=#000000;curved=1;strokeWidth=3;" edge="1" parent="1">
          <mxGeometry width="50" height="50" relative="1" as="geometry">
            <mxPoint x="384.5" y="630" as="sourcePoint" />
            <mxPoint x="384.5" y="400" as="targetPoint" />
          </mxGeometry>
        </mxCell>
        <mxCell id="8QwcRgRgL07BDc09xjMd-15" value="" style="endArrow=classic;html=1;rounded=0;sketch=0;fontSize=18;fontColor=#EA6B66;strokeColor=#000000;strokeWidth=3;curved=1;" edge="1" parent="1">
          <mxGeometry width="50" height="50" relative="1" as="geometry">
            <mxPoint x="155" y="440" as="sourcePoint" />
            <mxPoint x="380" y="440" as="targetPoint" />
          </mxGeometry>
        </mxCell>
        <mxCell id="8QwcRgRgL07BDc09xjMd-16" value="" style="endArrow=classic;startArrow=classic;html=1;rounded=0;sketch=0;fontSize=18;fontColor=#EA6B66;strokeColor=#000000;strokeWidth=3;curved=1;" edge="1" parent="1">
          <mxGeometry width="50" height="50" relative="1" as="geometry">
            <mxPoint x="158" y="550" as="sourcePoint" />
            <mxPoint x="378" y="550" as="targetPoint" />
          </mxGeometry>
        </mxCell>
        <mxCell id="8QwcRgRgL07BDc09xjMd-17" value="" style="endArrow=classic;startArrow=classic;html=1;rounded=0;sketch=0;fontSize=18;fontColor=#EA6B66;strokeColor=#000000;strokeWidth=3;curved=1;" edge="1" parent="1">
          <mxGeometry width="50" height="50" relative="1" as="geometry">
            <mxPoint x="160" y="610" as="sourcePoint" />
            <mxPoint x="380" y="610" as="targetPoint" />
          </mxGeometry>
        </mxCell>
        <mxCell id="8QwcRgRgL07BDc09xjMd-18" value="" style="endArrow=classic;html=1;rounded=0;sketch=0;fontSize=18;fontColor=#EA6B66;strokeColor=#000000;strokeWidth=3;curved=1;" edge="1" parent="1">
          <mxGeometry width="50" height="50" relative="1" as="geometry">
            <mxPoint x="380" y="490" as="sourcePoint" />
            <mxPoint x="160" y="490" as="targetPoint" />
          </mxGeometry>
        </mxCell>
        <mxCell id="8QwcRgRgL07BDc09xjMd-21" value="Handshake (HTTP Upgrade)" style="text;html=1;align=center;verticalAlign=middle;resizable=0;points=[];autosize=1;strokeColor=none;fillColor=none;fontSize=16;fontColor=#EA6B66;" vertex="1" parent="1">
          <mxGeometry x="160" y="460" width="220" height="20" as="geometry" />
        </mxCell>
      </root>
    </mxGraphModel>
  </diagram>
</mxfile>
